<svg width="49" height="29" viewBox="0 0 49 29" fill="none" xmlns="http://www.w3.org/2000/svg">
<path d="M20.6527 13.6605C18.2032 12.588 17.3188 10.4891 18.616 7.5266L18.7564 7.20598C20.1434 4.03833 22.5123 3.65426 24.7951 4.65379C25.7697 5.08055 26.3893 5.5505 26.7987 6.0813L26.2597 7.31246C25.6979 6.74553 25.1569 6.34054 24.349 5.98677C22.8228 5.31855 21.4503 5.69571 20.535 7.7861L20.3385 8.23496C19.4569 10.2484 19.6625 11.6986 21.5092 12.5072C22.5095 12.9452 23.263 12.9695 23.8843 12.9817L23.3509 14.2001C22.6077 14.2567 21.7043 14.121 20.6527 13.6605ZM24.5738 15.2093L28.6786 5.83462L30.1663 6.48599L26.0615 15.8607L24.5738 15.2093ZM27.8676 16.6516L30.7595 10.0469L32.2472 10.6983L29.3553 17.3029L27.8676 16.6516ZM31.2368 8.95684L31.8264 7.61027L33.3269 8.26726L32.7373 9.61384L31.2368 8.95684ZM33.8682 19.4165C31.9188 18.563 31.1906 16.945 32.1452 14.7649L32.2351 14.5597C33.2346 12.2769 35.0914 11.8061 36.9253 12.6091C37.7973 12.9909 38.2501 13.3879 38.5723 13.804L38.0669 14.9582C37.6109 14.4988 37.2751 14.1836 36.4928 13.8411C35.3899 13.3582 34.407 13.7531 33.8286 15.074L33.6994 15.369C33.0368 16.8823 33.3845 17.7986 34.6413 18.3489C35.4492 18.7027 36.113 18.6877 36.5138 18.6798L36.0421 19.757C35.501 19.841 34.7787 19.8152 33.8682 19.4165ZM37.1473 20.7147L41.2521 11.34L42.7269 11.9858L38.6221 21.3605L37.1473 20.7147ZM41.0844 22.4386C41.0476 22.2085 40.2736 18.217 40.244 18.0053C40.4252 17.8707 43.7181 15.9349 43.8937 15.8131L45.4327 16.487C45.237 16.5847 41.9922 18.4804 41.8223 18.5894C41.8647 18.8066 42.6819 22.9089 42.7131 23.1518L41.0844 22.4386Z" fill="#FF3E9A"/>
<g clip-path="url(#clip0_4416_10949)">
<path d="M3.40873 21.8596L2.59982 12.9896L7.48072 13.0361L5.6849 22.1339L3.40873 21.8596Z" fill="#FF409A"/>
<path d="M8.13465 22.9366L12.0764 14.8213L16.2088 17.4286L9.70428 23.6693L8.13465 22.9366Z" fill="#FF409A"/>
<path d="M11.2203 24.7869L19.7016 22.4414L21.0711 27.1668L11.4644 26.8771L11.2203 24.7869Z" fill="#FF409A"/>
</g>
<defs>
<clipPath id="clip0_4416_10949">
<rect width="20.58" height="12.98" fill="white" transform="translate(2.72852 12.2305) rotate(9.62124)"/>
</clipPath>
</defs>
</svg>
